<svg xmlns="http://www.w3.org/2000/svg" version="1.1" xmlns:xlink="http://www.w3.org/1999/xlink" width="512" height="512" x="0" y="0" viewBox="0 0 511 511.999" style="enable-background:new 0 0 512 512" xml:space="preserve" class=""><g><path fill="#e4eaf8" d="M409.422 0H51.945c-6.484 0-11.789 5.305-11.789 11.79v488.42c0 6.485 5.305 11.79 11.79 11.79h357.476c6.484 0 11.789-5.305 11.789-11.79V11.79c0-6.485-5.305-11.79-11.79-11.79zm0 0" opacity="1" data-original="#e4eaf8" class=""></path><g fill="#c7d2e5"><path d="M71.063 500.21V11.79C71.063 5.304 76.37 0 82.852 0H51.945c-6.484 0-11.789 5.305-11.789 11.79v488.42c0 6.485 5.305 11.79 11.79 11.79h30.906c-6.48 0-11.79-5.305-11.79-11.79zM330.555 119.824H161.457a7.726 7.726 0 1 1 0-15.453h169.098a7.726 7.726 0 1 1 0 15.453zM330.555 177.387H161.457a7.73 7.73 0 0 1 0-15.457h169.098a7.729 7.729 0 0 1 0 15.457zM330.555 234.945H161.457a7.726 7.726 0 1 1 0-15.453h169.098c4.265 0 7.726 3.457 7.726 7.727s-3.46 7.726-7.726 7.726zM316.074 292.508H161.457a7.726 7.726 0 1 1 0-15.453h154.617a7.726 7.726 0 1 1 0 15.453zM289.219 350.066H161.457a7.726 7.726 0 1 1 0-15.453h127.762a7.727 7.727 0 1 1 0 15.453zM262.379 407.629H161.457a7.726 7.726 0 0 1-7.727-7.727c0-4.27 3.461-7.726 7.727-7.726h100.922a7.726 7.726 0 0 1 7.726 7.726c0 4.27-3.46 7.727-7.726 7.727zM125.324 119.824h-17.097a7.729 7.729 0 0 1-7.727-7.726 7.724 7.724 0 0 1 7.727-7.727h17.097a7.726 7.726 0 0 1 7.727 7.727 7.726 7.726 0 0 1-7.727 7.726zM125.324 177.387h-17.097a7.73 7.73 0 0 1 0-15.457h17.097a7.729 7.729 0 0 1 0 15.457zM125.324 234.945h-17.097c-4.266 0-7.727-3.457-7.727-7.726s3.457-7.727 7.727-7.727h17.097c4.266 0 7.727 3.457 7.727 7.727s-3.457 7.726-7.727 7.726zM125.324 292.508h-17.097a7.729 7.729 0 0 1-7.727-7.727 7.724 7.724 0 0 1 7.727-7.726h17.097a7.726 7.726 0 0 1 7.727 7.726 7.726 7.726 0 0 1-7.727 7.727zM125.324 350.066h-17.097a7.726 7.726 0 0 1-7.727-7.726 7.726 7.726 0 0 1 7.727-7.727h17.097a7.729 7.729 0 0 1 7.727 7.727 7.724 7.724 0 0 1-7.727 7.726zM125.324 407.629h-17.097a7.726 7.726 0 0 1-7.727-7.727 7.724 7.724 0 0 1 7.727-7.726h17.097a7.726 7.726 0 0 1 7.727 7.726 7.724 7.724 0 0 1-7.727 7.727zm0 0" fill="#c7d2e5" opacity="1" data-original="#c7d2e5" class=""></path></g><path fill="#f4b537" d="m259.727 379.613 114.152-244.812 28.937 13.492-114.152 244.816zm0 0" opacity="1" data-original="#f4b537" class=""></path><path fill="#feca57" d="m288.664 393.11 114.152-244.817 28.938 13.496-114.152 244.813zm0 0" opacity="1" data-original="#feca57" class=""></path><path fill="#f9e4c7" d="m259.73 379.617-7.582 77.438c-.593 6.05 6.758 9.476 11.012 5.136l54.445-55.586zm0 0" opacity="1" data-original="#f9e4c7"></path><path fill="#f2d5b1" d="m288.305 392.941-28.575-13.324-7.582 77.438c-.593 6.05 6.758 9.476 11.012 5.136l20.402-20.832zm0 0" opacity="1" data-original="#f2d5b1"></path><path fill="#ff6b6b" d="m456.066 109.676 5.567-11.934c7.62-16.347.836-35.793-15.078-43.215-15.918-7.422-35.176-.12-42.797 16.227l-5.567 11.933zm0 0" opacity="1" data-original="#ff6b6b" class=""></path><path fill="#ee5253" d="M432.113 84.004a3.12 3.12 0 0 1-1.508-4.145l4.247-9.105a33.193 33.193 0 0 1 13.992-15.031 32.618 32.618 0 0 0-2.293-1.196c-15.914-7.422-35.172-.12-42.797 16.227l-5.563 11.933 57.875 26.989 5.555-11.914zm0 0" opacity="1" data-original="#ee5253" class=""></path><path fill="#576574" d="M72.086 62.262H8.226A7.726 7.726 0 0 1 .5 54.535a7.724 7.724 0 0 1 7.727-7.726h63.859a7.726 7.726 0 0 1 7.727 7.726c0 4.27-3.461 7.727-7.727 7.727zM72.086 119.824H8.226A7.729 7.729 0 0 1 .5 112.098a7.724 7.724 0 0 1 7.727-7.727h63.859a7.726 7.726 0 1 1 0 15.453zM72.086 177.387H8.226a7.73 7.73 0 0 1 0-15.457h63.86a7.729 7.729 0 0 1 0 15.457zM72.086 234.945H8.226c-4.265 0-7.726-3.457-7.726-7.726s3.457-7.727 7.727-7.727h63.859c4.266 0 7.727 3.457 7.727 7.727s-3.461 7.726-7.727 7.726zM72.086 292.508H8.226A7.729 7.729 0 0 1 .5 284.78a7.724 7.724 0 0 1 7.727-7.726h63.859a7.726 7.726 0 1 1 0 15.453zM72.086 350.066H8.226A7.726 7.726 0 0 1 .5 342.34a7.726 7.726 0 0 1 7.727-7.727h63.859a7.726 7.726 0 1 1 0 15.453zM72.086 407.629H8.226A7.726 7.726 0 0 1 .5 399.902a7.724 7.724 0 0 1 7.727-7.726h63.859a7.726 7.726 0 0 1 7.727 7.726c0 4.27-3.461 7.727-7.727 7.727zM72.086 465.191H8.226a7.729 7.729 0 0 1 0-15.457h63.86a7.73 7.73 0 0 1 0 15.457zM256.082 416.895l-3.934 40.16c-.593 6.05 6.758 9.48 11.012 5.136l28.238-28.828zm0 0" opacity="1" data-original="#576574" class=""></path><path fill="#3e4b5a" d="m284.652 430.219-28.57-13.324-1.41 14.394-2.524 25.766c-.593 6.05 6.758 9.476 11.012 5.133l20.403-20.829zm0 0" opacity="1" data-original="#3e4b5a"></path><path fill="#8ac2ff" d="m447.398 137.031-64.851-30.242a4.561 4.561 0 0 0-6.059 2.207l-8.687 18.625a4.567 4.567 0 0 0 2.207 6.063l64.851 30.238a4.56 4.56 0 0 0 6.063-2.207l8.683-18.621a4.56 4.56 0 0 0-2.207-6.063zm0 0" opacity="1" data-original="#8ac2ff" class=""></path><path fill="#54a0ff" d="M459.938 110.14 395.09 79.899a4.565 4.565 0 0 0-6.063 2.207l-8.683 18.625a4.557 4.557 0 0 0 2.203 6.06l64.851 30.241a4.558 4.558 0 0 0 6.063-2.207l8.684-18.62c1.066-2.286.078-5-2.208-6.063zm0 0" opacity="1" data-original="#54a0ff" class=""></path><path fill="#54a0ff" d="M396.11 133.68a4.565 4.565 0 0 1-2.208-6.063l5.95-12.758-17.301-8.07a4.565 4.565 0 0 0-6.063 2.207l-8.683 18.621a4.558 4.558 0 0 0 2.207 6.063l64.851 30.242a4.561 4.561 0 0 0 6.059-2.207l2.734-5.863zm0 0" opacity="1" data-original="#54a0ff" class=""></path><path fill="#338def" d="M408.648 106.79a4.561 4.561 0 0 1-2.207-6.06l5.95-12.761-17.301-8.07a4.565 4.565 0 0 0-6.063 2.206l-8.683 18.625a4.555 4.555 0 0 0 2.207 6.06l64.851 30.241a4.555 4.555 0 0 0 6.059-2.207l2.734-5.863zm0 0" opacity="1" data-original="#338def" class=""></path></g></svg>